<svg width="87" height="87" viewBox="0 0 87 87" fill="none" xmlns="http://www.w3.org/2000/svg">
<path d="M62.9056 51.9501C61.8328 51.4119 56.5554 48.8183 55.5729 48.4571C54.5868 48.0995 53.8716 47.9225 53.1528 48.999C52.4412 50.0718 50.3823 52.4883 49.7574 53.2035C49.1324 53.9223 48.5039 54.009 47.4311 53.4744C46.3583 52.9326 42.8979 51.802 38.7981 48.1465C35.6086 45.3001 33.4521 41.7855 32.8272 40.7091C32.2023 39.6363 32.7622 39.0547 33.2968 38.5201C33.7808 38.0397 34.3732 37.2667 34.9078 36.6418C35.446 36.0133 35.623 35.5654 35.9842 34.8466C36.3418 34.1313 36.1648 33.5064 35.8939 32.9682C35.623 32.43 33.4774 27.1455 32.5852 24.9962C31.7111 22.9048 30.8261 23.1901 30.1687 23.154C29.5438 23.1251 28.8286 23.1179 28.1097 23.1179C27.3945 23.1179 26.2314 23.3852 25.2489 24.4616C24.2664 25.5344 21.4923 28.1316 21.4923 33.4161C21.4923 38.6971 25.3392 43.8011 25.8738 44.5199C26.412 45.2351 33.4449 56.0788 44.2127 60.7276C46.7737 61.8329 48.7712 62.4939 50.3317 62.9852C52.9035 63.8051 55.2442 63.6896 57.09 63.4114C59.1526 63.1044 63.4402 60.8143 64.336 58.3075C65.2318 55.8006 65.2318 53.6514 64.9609 53.2035C64.6936 52.7556 63.982 52.4883 62.9056 51.9501ZM43.3205 78.6908H43.3061C36.9117 78.6913 30.6349 76.9721 25.1333 73.7133L23.8293 72.9403L10.3163 76.4874L13.9212 63.3103L13.0724 61.9593C9.49793 56.2676 7.60697 49.6805 7.61802 42.9594C7.62163 23.2732 23.6415 7.25696 43.335 7.25696C52.871 7.25696 61.8364 10.9775 68.5767 17.725C71.9023 21.0359 74.5382 24.9736 76.332 29.31C78.1257 33.6464 79.0416 38.2956 79.0266 42.9883C79.0158 62.6745 62.9995 78.6908 43.3205 78.6908ZM73.7095 12.5993C69.7296 8.59317 64.9942 5.4167 59.7778 3.25397C54.5613 1.09125 48.9675 -0.014724 43.3205 0.000148017C19.6429 0.000148017 0.372051 19.271 0.361215 42.9558C0.361215 50.5269 2.33706 57.9173 6.09731 64.4301L0 86.6917L22.7746 80.7172C29.0727 84.1485 36.1303 85.9467 43.3024 85.9476H43.3205C66.9945 85.9476 86.269 66.6768 86.2798 42.9883C86.2973 37.3435 85.1953 31.7513 83.0376 26.5351C80.88 21.3189 77.7095 16.5823 73.7095 12.5993Z" fill="white"/>
</svg>
