<svg width="87" height="61" viewBox="0 0 87 61" fill="none" xmlns="http://www.w3.org/2000/svg">
<path d="M84.4787 9.31096C83.9786 7.51913 83.0248 5.88661 81.7094 4.57117C80.3939 3.25574 78.7614 2.30189 76.9696 1.80182C70.2444 5.16604e-05 43.1784 5.10161e-05 43.1784 5.10161e-05C43.1784 5.10161e-05 16.1807 -0.0359117 9.38721 1.80182C7.59538 2.30189 5.96285 3.25574 4.64742 4.57117C3.33199 5.88661 2.37814 7.51913 1.87806 9.31096C0.603237 16.1962 -0.0252587 23.1855 0.000776781 30.1877C-0.0203368 37.1635 0.608139 44.1261 1.87806 50.9853C2.37814 52.7771 3.33199 54.4097 4.64742 55.7251C5.96285 57.0405 7.59538 57.9944 9.38721 58.4945C16.1052 60.2998 43.1784 60.2998 43.1784 60.2998C43.1784 60.2998 70.1725 60.2998 76.9696 58.4945C78.7614 57.9944 80.3939 57.0405 81.7094 55.7251C83.0248 54.4097 83.9786 52.7771 84.4787 50.9853C85.7221 44.1236 86.3241 37.161 86.2769 30.1877C86.329 23.188 85.727 16.1987 84.4787 9.31096ZM34.54 43.1021V17.2337L57.0674 30.1877L34.54 43.1021Z" fill="white"/>
</svg>
