<svg width="87" height="87" viewBox="0 0 87 87" fill="none" xmlns="http://www.w3.org/2000/svg">
<path d="M43.14 0C31.4203 0 29.9571 0.053925 25.3555 0.25884C20.7611 0.47454 17.6335 1.19714 14.8833 2.26485C12.0468 3.36492 9.63819 4.84246 7.24033 7.24033C4.84246 9.63819 3.36133 12.0432 2.26485 14.8833C1.19714 17.6335 0.470945 20.7611 0.25884 25.3555C0.04314 29.9571 0 31.4203 0 43.14C0 54.8597 0.053925 56.3229 0.25884 60.9245C0.47454 65.5153 1.19714 68.6465 2.26485 71.3967C3.36492 74.2296 4.84246 76.6418 7.24033 79.0397C9.63819 81.4339 12.0432 82.9187 14.8833 84.0152C17.6371 85.0793 20.7647 85.8091 25.3555 86.0212C29.9571 86.2369 31.4203 86.28 43.14 86.28C54.8597 86.28 56.3229 86.2261 60.9245 86.0212C65.5153 85.8055 68.6465 85.0793 71.3967 84.0152C74.2296 82.9151 76.6418 81.4339 79.0397 79.0397C81.4339 76.6418 82.9187 74.2403 84.0152 71.3967C85.0793 68.6465 85.8091 65.5153 86.0212 60.9245C86.2369 56.3229 86.28 54.8597 86.28 43.14C86.28 31.4203 86.2261 29.9571 86.0212 25.3555C85.8055 20.7647 85.0793 17.6299 84.0152 14.8833C82.9151 12.0468 81.4339 9.63819 79.0397 7.24033C76.6418 4.84246 74.2403 3.36133 71.3967 2.26485C68.6465 1.19714 65.5153 0.470945 60.9245 0.25884C56.3229 0.04314 54.8597 0 43.14 0ZM43.14 7.7652C54.6548 7.7652 56.0281 7.82272 60.5758 8.02044C64.7819 8.21817 67.0647 8.9156 68.5818 9.51237C70.6022 10.2925 72.033 11.2272 73.5501 12.7335C75.0564 14.2434 75.9911 15.6778 76.7712 17.6982C77.3608 19.2153 78.0654 21.4981 78.256 25.7043C78.4609 30.2555 78.5076 31.6216 78.5076 43.14C78.5076 54.6584 78.4537 56.0281 78.2416 60.5758C78.0223 64.7819 77.3213 67.0647 76.7281 68.5818C75.9228 70.6022 75.0061 72.033 73.4962 73.5501C71.9899 75.0564 70.5339 75.9911 68.5351 76.7712C67.0252 77.3608 64.7064 78.0654 60.5003 78.256C55.9202 78.4609 54.5721 78.5076 43.0322 78.5076C31.4886 78.5076 30.1405 78.4537 25.564 78.2416C21.3543 78.0223 19.0355 77.3213 17.5256 76.7281C15.4801 75.9228 14.0744 75.0061 12.5681 73.4962C11.0546 71.9899 10.0876 70.5339 9.33262 68.5351C8.73944 67.0252 8.04202 64.7064 7.82272 60.5003C7.66095 55.9706 7.60343 54.5721 7.60343 43.0861C7.60343 31.5965 7.66095 30.1944 7.82272 25.6108C8.04202 21.4046 8.73944 19.0894 9.33262 17.5795C10.0876 15.5304 11.0546 14.1284 12.5681 12.6149C14.0744 11.1086 15.4801 10.1379 17.5256 9.38655C19.0355 8.78978 21.304 8.08875 25.5101 7.87305C30.0937 7.71128 31.4419 7.65735 42.9782 7.65735L43.14 7.7652ZM43.14 20.9876C30.899 20.9876 20.9876 30.9098 20.9876 43.14C20.9876 55.381 30.9098 65.2924 43.14 65.2924C55.381 65.2924 65.2924 55.3702 65.2924 43.14C65.2924 30.899 55.3702 20.9876 43.14 20.9876ZM43.14 57.52C35.1951 57.52 28.76 51.085 28.76 43.14C28.76 35.1951 35.1951 28.76 43.14 28.76C51.085 28.76 57.52 35.1951 57.52 43.14C57.52 51.085 51.085 57.52 43.14 57.52ZM71.3464 20.114C71.3464 22.972 69.024 25.2908 66.1696 25.2908C63.3115 25.2908 60.9928 22.9685 60.9928 20.114C60.9928 17.2596 63.3151 14.9408 66.1696 14.9408C69.0204 14.9372 71.3464 17.2596 71.3464 20.114Z" fill="white"/>
</svg>
