<svg width="87" height="100" viewBox="0 0 87 100" fill="none" xmlns="http://www.w3.org/2000/svg">
<path d="M45.3143 0.082759C50.735 0 56.1143 0.0413795 61.4937 0C61.8247 6.33106 64.1006 12.7863 68.7351 17.2553C73.3696 21.8484 79.9076 23.9587 86.28 24.6622V41.3381C80.3214 41.1312 74.3213 39.8898 68.9006 37.3243C66.542 36.2484 64.3489 34.8829 62.1971 33.476C62.1557 45.5588 62.2385 57.6416 62.1144 69.6831C61.7833 75.4762 59.8799 81.228 56.5281 85.9866C51.1074 93.9315 41.7143 99.1039 32.0728 99.2694C26.1556 99.6005 20.2383 97.9867 15.19 95.0073C6.83135 90.0832 0.95546 81.0624 0.0864902 71.3796C0.00373116 69.3107 -0.0376483 67.2417 0.0451107 65.2141C0.789942 57.352 4.67962 49.8209 10.721 44.6899C17.59 38.7312 27.1901 35.876 36.1694 37.5726C36.2522 43.6968 36.0039 49.8209 36.0039 55.9451C31.9073 54.6209 27.1073 54.9934 23.5073 57.4761C20.9004 59.1727 18.9142 61.7796 17.8797 64.7175C17.0107 66.8279 17.259 69.1452 17.3004 71.3796C18.2935 78.1659 24.8314 83.8763 31.7832 83.2556C36.4177 83.2142 40.8453 80.5245 43.2453 76.5935C44.0315 75.2279 44.9005 73.821 44.9419 72.2072C45.3557 64.8003 45.1901 57.4348 45.2315 50.0278C45.2729 33.3519 45.1901 16.7173 45.3143 0.082759Z" fill="white"/>
</svg>
