<svg width="87" height="47" viewBox="0 0 87 47" fill="none" xmlns="http://www.w3.org/2000/svg">
<path d="M22.6737 0L24.0793 6.02163H0C0 6.02163 0.40264 7.82632 0.600365 8.02764C1.20432 9.03064 1.80469 10.235 2.60997 11.0367C6.42067 15.4513 13.0427 17.256 18.4603 18.259C22.271 19.0643 26.0853 19.2656 29.896 19.4633L34.3107 31.3017H36.7193L38.125 35.116H36.119L32.7073 46.1526H66.2163L62.8046 35.116H60.7986L62.2007 31.3017H64.6093C64.6093 31.3017 66.6154 19.0643 72.8347 13.4453C78.8563 7.82632 86.28 7.02463 86.28 7.02463V0H22.6737ZM56.384 30.2987C54.777 31.3017 52.9723 31.3017 51.768 32.1069C50.9663 32.506 50.5637 33.7103 50.5637 33.7103C49.762 31.9056 48.759 31.3017 47.5547 30.9026C46.3503 30.5 44.143 30.7013 41.134 28.0913C39.128 26.2866 38.9267 23.878 39.128 22.6737V22.0733C39.128 21.872 39.128 21.6707 39.3293 21.4693C39.7283 20.2686 40.7313 19.0643 42.7374 18.259C42.7374 18.259 41.3353 20.2686 42.7374 22.2746C43.5426 23.4789 45.146 24.0793 46.5517 23.2776C47.152 22.875 47.5547 22.0733 47.756 21.4693C48.155 20.0673 48.155 18.6616 46.9507 17.6586C45.146 16.0553 44.747 13.8479 45.9477 12.4423C45.9477 12.4423 46.3503 14.247 48.155 14.0457C49.3594 14.0457 49.3594 13.6466 48.9603 13.244C48.759 12.6436 46.149 8.82932 49.9633 6.02163C49.9633 6.02163 52.3684 4.41466 55.1797 4.61598C53.5727 4.8173 51.768 5.82031 51.1676 7.42727V7.625C50.5637 9.23196 50.9663 11.0366 52.1706 12.6436C52.9723 13.8479 53.9753 14.8509 54.378 16.4543C53.774 16.253 53.375 16.4543 52.9723 16.857C52.7584 17.0994 52.6093 17.392 52.5389 17.7075C52.4685 18.0231 52.4791 18.3513 52.5697 18.6616C52.771 19.0643 53.1736 19.4633 53.5727 19.4633H54.1766C54.777 19.2656 55.1797 18.4603 54.9783 17.86C55.381 18.259 55.5787 19.2656 55.381 19.866C55.381 20.4663 54.9783 21.0703 54.777 21.4693C54.5757 21.872 54.1767 22.2746 53.9753 22.6737C53.774 23.0763 53.5727 23.4789 53.5727 23.878C53.5727 24.2806 53.5727 24.881 53.774 25.2836C54.5757 26.488 56.1827 25.2836 56.5853 24.2806C57.1857 23.0763 56.9843 21.6707 56.1827 20.4663C56.1827 20.4663 57.5883 21.2716 58.5913 24.0793C59.393 26.488 57.9874 29.2957 56.384 30.2987Z" fill="white"/>
</svg>
