<svg width="87" height="89" viewBox="0 0 87 89" fill="none" xmlns="http://www.w3.org/2000/svg">
<path d="M44.0204 37.7292V52.8245H68.9873C67.9785 59.2992 61.4451 71.8046 44.0204 71.8046C28.9984 71.8046 16.7314 59.3725 16.7314 44.0204C16.7314 28.6683 29.0021 16.2362 44.0204 16.2362C52.5677 16.2362 58.294 19.8642 61.5735 23.019L73.5104 11.5077C65.8435 4.35068 55.9022 0 44.0204 0C19.6808 0 0 19.6808 0 44.0204C0 68.36 19.6808 88.0408 44.0204 88.0408C69.4275 88.0408 86.28 70.1795 86.28 45.0255C86.28 42.1349 85.9682 39.9265 85.5867 37.7292H44.0204Z" fill="white"/>
</svg>
