<svg width="87" height="87" viewBox="0 0 87 87" fill="none" xmlns="http://www.w3.org/2000/svg">
<path d="M43.14 0C19.3159 0 0 19.3159 0 43.14C0 66.9641 19.3159 86.28 43.14 86.28C66.9641 86.28 86.28 66.9641 86.28 43.14C86.28 19.3159 66.9641 0 43.14 0ZM25.0284 27.6096C27.739 27.6096 29.8349 29.5833 30.0794 31.9236C30.3274 34.0195 29.4646 35.8673 27.1243 36.9782C25.8912 37.5929 25.3987 37.5965 25.1506 37.2262C25.0284 36.9782 25.1506 36.7337 25.3987 36.4857C27.6168 34.6378 27.6168 33.1567 27.3687 31.0644C27.2465 29.7055 26.2615 28.8427 25.2729 28.8427C20.9589 28.8427 14.797 38.4557 15.6598 45.4839C16.0301 48.1946 17.6335 51.4013 21.0847 51.4013C22.1919 51.4013 23.4214 51.031 24.5359 50.5385C26.3334 49.5894 27.4083 48.8489 28.4796 47.6625C28.2172 44.4809 31.0105 40.3071 35.1339 40.3071C36.9854 40.3071 38.4629 41.0441 38.5851 42.403C38.8296 44.2509 37.2298 44.4953 36.7373 44.4953C36.2448 44.4953 35.3784 44.3731 35.3784 43.8842C35.2562 43.3881 36.4893 43.6325 36.367 42.5253C36.2412 41.7847 35.5042 41.5402 34.7637 41.5402C32.1753 41.5402 30.6977 45.1137 31.0644 47.3318C31.1902 48.3204 31.6827 49.3054 32.6714 49.3054C33.4083 49.3054 34.5192 48.191 34.8895 46.5912C35.1339 45.4839 36.1226 44.7434 36.9854 44.7434C37.3521 44.7434 37.5965 44.8656 37.7223 45.3581V45.8542C37.6001 46.3467 37.2298 47.8243 37.3556 48.1946C37.3556 48.4426 37.4779 48.8093 37.9668 48.8093C38.2975 48.8093 39.5342 48.1622 40.7601 47.1592C41.1807 45.0382 41.6696 42.4929 41.6696 42.2808C41.7919 41.418 42.1622 40.5552 43.8878 40.5552C44.258 40.5552 44.5025 40.6774 44.6247 41.1699V41.6661L44.1358 43.8842C45.7356 41.7883 48.0795 40.3107 49.5571 40.3107C50.1754 40.3107 50.6679 40.6774 50.6679 41.2958C50.6679 41.6661 50.6679 42.2808 50.4199 42.8991C49.9274 44.2544 49.309 46.3503 48.9387 48.1982C48.9387 48.6907 49.0646 49.1832 49.6829 49.1832C50.2976 49.1832 52.1455 48.4426 53.623 46.4726L53.6482 46.4582C53.641 46.2137 53.623 45.9765 53.623 45.732C53.623 44.2544 53.7488 43.0214 53.9969 42.1586C54.2414 41.1735 55.4744 40.3107 56.215 40.3107C56.5853 40.3107 56.952 40.5588 56.952 40.9255C56.952 41.0513 56.952 41.2958 56.8298 41.418C56.3372 43.0214 55.967 44.4989 55.967 45.9801C55.967 46.8429 56.0892 48.0723 56.3337 48.8129C56.3337 48.9351 56.4595 49.061 56.5853 49.061C56.8298 49.061 58.5554 47.4612 59.7848 45.3653C58.6776 44.6247 58.0592 43.3917 58.0592 41.9141C58.0592 39.3257 59.6626 37.9704 61.1438 37.9704C62.3768 37.9704 63.3619 38.8332 63.3619 40.5588C63.3619 41.666 62.9916 42.8955 62.3768 44.01H62.7435C63.1346 44.0227 63.5239 43.9524 63.8858 43.8037C64.2477 43.655 64.5739 43.4312 64.843 43.1472C64.9561 42.9604 65.1245 42.8135 65.3247 42.7266C66.5291 41.1987 68.3086 40.0663 70.3937 40.0663C72.1193 40.0663 73.7155 40.8033 73.8413 42.1586C74.0858 44.01 72.4824 44.3803 71.9899 44.3803L71.9827 44.3731C71.4866 44.3731 70.6274 44.2473 70.6274 43.7547C70.6274 43.2622 71.7382 43.5103 71.6124 42.403C71.4902 41.6625 70.7496 41.4144 70.009 41.4144C67.5429 41.4144 65.9467 44.6175 66.3134 47.2059C66.4356 48.1946 66.9281 49.3018 67.9131 49.3018C68.6537 49.3018 69.7646 48.1946 70.2571 46.5912C70.5015 45.6062 71.4902 44.7434 72.353 44.7434C72.7233 44.7434 72.9641 44.8656 73.0899 45.3581C73.0899 45.6062 73.0899 46.0987 72.5974 47.7021C71.9863 48.8093 71.9827 49.4277 72.1049 49.9202C72.2271 50.9052 72.7197 51.6458 73.2158 52.0161C73.338 52.1383 73.4602 52.3827 73.4602 52.3827C73.4602 52.6308 73.338 52.8789 72.9677 52.8789C72.8455 52.8789 72.7233 52.8789 72.5974 52.753C70.7496 52.0161 70.009 50.783 69.761 49.5499C69.024 50.4127 68.1612 50.9052 67.1726 50.9052C65.5728 50.9052 63.973 49.4277 63.7214 47.5762C63.6508 46.7883 63.7425 45.9942 63.991 45.2431C63.2612 45.7104 62.4739 45.9729 61.7513 45.9729H61.1402C59.5332 48.3168 57.8076 49.9202 56.5745 50.6571C56.1558 50.88 55.693 51.0077 55.2192 51.031C54.9747 51.031 54.6045 50.9052 54.4822 50.6571C54.1407 50.1107 53.9214 49.2479 53.7884 48.2593C52.0592 50.1538 49.6721 51.1533 48.5649 51.1533C47.3318 51.1533 46.5948 50.4127 46.4726 49.176V47.8243C46.8393 45.1137 47.8279 43.5103 47.8279 43.0178C47.8245 42.9527 47.7974 42.8912 47.7517 42.8448C47.706 42.7984 47.6448 42.7704 47.5798 42.7661C46.717 42.7661 43.8842 45.7284 43.3881 47.7021L43.0178 49.3018C42.7733 50.4127 41.6625 51.1533 40.9255 51.1533C40.5552 51.1533 40.3071 51.0274 40.1849 50.5349V50.0424L40.3503 49.2048C38.7865 50.3192 37.2226 51.031 36.4857 51.031C35.3784 51.031 34.7601 50.4127 34.6378 49.5499C33.8973 50.5349 33.038 51.031 31.9272 51.031C30.6618 51.031 29.4251 50.1682 28.8283 48.8992C27.9511 49.8878 26.9481 50.8872 25.7654 51.6458C24.0398 52.7566 22.0697 53.6194 19.7258 53.6194C17.6335 53.6194 15.7821 52.5086 14.797 51.5235C13.3159 50.1682 12.4567 48.0723 12.3309 46.0987C11.5939 40.0591 15.2895 32.2939 20.9588 28.8427C22.3178 28.1057 23.6731 27.6096 25.0284 27.6096ZM60.1515 39.4407C59.7777 39.4407 59.5332 40.0591 59.5332 40.6738C59.5332 41.6589 60.0257 42.7697 60.6441 43.3881C60.8851 42.7155 61.0091 42.0066 61.0107 41.2922C61.0107 40.0591 60.5218 39.4407 60.1515 39.4407Z" fill="white"/>
</svg>
