<svg width="87" height="87" viewBox="0 0 87 87" fill="none" xmlns="http://www.w3.org/2000/svg">
<path d="M73.507 73.5249H60.7303V53.5044C60.7303 48.7302 60.6333 42.5864 54.0724 42.5864C47.4109 42.5864 46.3935 47.7811 46.3935 53.1521V73.5249H33.6168V32.355H45.8902V37.9668H46.0555C47.7704 34.7313 51.9406 31.316 58.1707 31.316C71.1163 31.316 73.5106 39.8362 73.5106 50.9268L73.507 73.5249ZM19.1865 26.7216C15.0738 26.7216 11.77 23.3927 11.77 19.298C11.77 15.2069 15.0774 11.8815 19.1865 11.8815C23.2848 11.8815 26.6066 15.2069 26.6066 19.298C26.6066 23.3927 23.2812 26.7216 19.1865 26.7216ZM25.5928 73.5249H12.7802V32.355H25.5928V73.5249ZM79.8989 0H6.36675C2.84724 0 0 2.78253 0 6.21575V80.0642C0 83.5011 2.84724 86.28 6.36675 86.28H79.8881C83.404 86.28 86.28 83.5011 86.28 80.0642V6.21575C86.28 2.78253 83.404 0 79.8881 0L79.8989 0Z" fill="white"/>
</svg>
