<svg width="87" height="107" viewBox="0 0 87 107" fill="none" xmlns="http://www.w3.org/2000/svg">
<path d="M21.3841 104.247C19.2904 102.848 17.4313 101.135 15.8776 99.1565C14.1823 97.107 12.6109 94.9514 11.1679 92.7204C7.77724 87.7628 5.12581 82.3405 3.28884 76.6259C1.07562 69.9774 0 63.6122 0 57.3843C0 50.4348 1.50499 44.3705 4.43528 39.2802C6.60424 35.2964 9.83553 31.9633 13.7308 29.6217C17.4933 27.2757 21.8754 25.992 26.3019 25.9035C27.8511 25.9035 29.5332 26.1248 31.3037 26.5674C32.5874 26.9216 34.1366 27.497 36.04 28.2052C38.4745 29.1348 39.8025 29.7102 40.2451 29.843C41.6616 30.3742 42.8567 30.5955 43.7863 30.5955C44.4945 30.5955 45.5126 30.3742 46.6413 30.0201C47.2831 29.7987 48.5004 29.4004 50.2267 28.6479C51.9353 28.0282 53.2898 27.497 54.3654 27.0986C56.0032 26.6117 57.5879 26.1691 59.0132 25.9477C60.7395 25.6822 62.4525 25.5936 64.0947 25.7264C67.2375 25.9477 70.1147 26.6117 72.682 27.5855C77.197 29.4004 80.8399 32.2333 83.5577 36.2613C82.4069 36.9696 81.3445 37.7929 80.3486 38.6959C78.1929 40.5992 76.3648 42.8567 74.9041 45.3576C73.0007 48.766 72.0269 52.617 72.0534 56.5122C72.1198 61.3061 73.3371 65.52 75.7716 69.1718C77.4847 71.8277 79.7731 74.1029 82.5618 75.9708C83.934 76.9004 85.138 77.5422 86.28 77.9627C85.7488 79.6226 85.1645 81.2383 84.4873 82.8318C82.9513 86.4039 81.1232 89.8256 78.9543 93.0569C77.042 95.8455 75.5371 97.9259 74.395 99.2981C72.6156 101.423 70.8982 103.016 69.1718 104.154C67.2685 105.415 65.0331 106.084 62.7447 106.084C61.1954 106.15 59.6462 105.951 58.1677 105.522C56.8841 105.101 55.6181 104.628 54.3787 104.092C53.0818 103.499 51.7406 102.994 50.3728 102.587C48.6907 102.144 46.9644 101.932 45.2204 101.936C43.4499 101.936 41.7235 102.158 40.0858 102.578C38.7136 102.968 37.3856 103.446 36.071 104.017C34.2119 104.791 32.9946 105.3 32.2864 105.522C30.8522 105.947 29.3826 106.203 27.9042 106.296C25.6025 106.296 23.4601 105.632 21.3265 104.304L21.3841 104.247ZM51.7229 22.535C48.7129 24.0399 45.8534 24.6774 42.9895 24.4649C42.5469 21.6054 42.9895 18.6663 44.1846 15.4482C45.247 12.7039 46.6634 10.2251 48.6111 8.01184C50.6472 5.7101 53.0818 3.80673 55.8262 2.43454C58.7476 0.929551 61.5362 0.132793 64.1921 0C64.5462 3.00997 64.1921 5.97568 63.0855 9.16271C62.0763 11.9956 60.5713 14.6072 58.6591 16.9532C56.7336 19.255 54.3433 21.1583 51.6387 22.5305L51.7229 22.535Z" fill="white"/>
</svg>
