<svg width="87" height="71" viewBox="0 0 87 71" fill="none" xmlns="http://www.w3.org/2000/svg">
<path d="M86.111 8.85084C82.9296 10.2492 79.5325 11.2019 75.9556 11.6368C79.6008 9.44039 82.4048 5.97855 83.7313 1.84807C80.3126 3.84321 76.5236 5.29553 72.4902 6.10437C69.2692 2.65691 64.6785 0.5 59.581 0.5C49.8138 0.5 41.8944 8.41946 41.8944 18.1759C41.8944 19.5779 42.0562 20.9259 42.3509 22.2165C27.648 21.5227 14.6167 14.4624 5.89555 3.78929C4.36055 6.38477 3.50138 9.40085 3.50138 12.6865C3.50138 18.8337 6.6289 24.2368 11.3669 27.4111C8.46587 27.3176 5.73738 26.5195 3.35759 25.1966V25.4159C3.35759 33.9896 9.44367 41.1398 17.5429 42.7683C16.0582 43.1673 14.4908 43.383 12.8839 43.383C11.7552 43.383 10.6731 43.2751 9.59106 43.0738C11.8594 50.0946 18.3805 55.2136 26.1418 55.3574C20.1024 60.099 12.449 62.9246 4.20597 62.9246C2.80398 62.9246 1.40559 62.8419 0 62.6837C7.86913 67.6949 17.1402 70.6247 27.1663 70.6247C59.7141 70.6247 77.4906 43.6777 77.4906 20.3472C77.4906 19.5958 77.4906 18.8373 77.4367 18.0824C80.8913 15.6056 83.9074 12.4744 86.28 8.92274L86.111 8.85084Z" fill="white"/>
</svg>
